inDegrees=no
num_controls=7
num_derivatives=13
num_iterations=383
num_multipliers=7
num_parameters=0
num_slacks=7
num_states=26
objective=5.767460
objective_accelerations=0.665163
objective_balance=0.122217
objective_effort=0.447782
objective_height=4.470863
objective_ligament=0.061436
solver_duration=4352.236145
status=Solve_Succeeded
success=true
DataType=double
version=3
OpenSimVersion=4.4-2022-07-23-0e9fedc
endheader
time	/jointset/ground_pelvis/pelvis_tilt/value	/jointset/ground_pelvis/pelvis_tx/value	/jointset/ground_pelvis/pelvis_ty/value	/jointset/hip_l/hip_flexion_l/value	/jointset/hip_l/hip_adduction_l/value	/jointset/hip_l/hip_rotation_l/value	/jointset/back/lumbar_extension/value	/jointset/patellofemoral_l/patellar_flexion_l/value	/jointset/knee_l/knee_flexion_l/value	/jointset/knee_l/knee_adduction_l/value	/jointset/knee_l/knee_rotation_l/value	/jointset/ankle_l/ankle_angle_l/value	/jointset/subtalar_l/subtalar_angle_l/value	/jointset/ground_pelvis/pelvis_tilt/speed	/jointset/ground_pelvis/pelvis_tx/speed	/jointset/ground_pelvis/pelvis_ty/speed	/jointset/hip_l/hip_flexion_l/speed	/jointset/hip_l/hip_adduction_l/speed	/jointset/hip_l/hip_rotation_l/speed	/jointset/back/lumbar_extension/speed	/jointset/patellofemoral_l/patellar_flexion_l/speed	/jointset/knee_l/knee_flexion_l/speed	/jointset/knee_l/knee_adduction_l/speed	/jointset/knee_l/knee_rotation_l/speed	/jointset/ankle_l/ankle_angle_l/speed	/jointset/subtalar_l/subtalar_angle_l/speed	/forceset/tau_hip_flexion_l	/forceset/tau_hip_adduction_l	/forceset/tau_hip_rotation_l	/forceset/tau_knee_flexion_l	/forceset/tau_ankle_angle_l	/forceset/tau_subtalar_angle_l	/forceset/tau_lumbar_extension	lambda_cid13_p0	lambda_cid13_p1	lambda_cid13_p2	lambda_cid13_p3	lambda_cid13_p4	lambda_cid13_p5	lambda_cid14_p0	/jointset/ground_pelvis/pelvis_tilt/accel	/jointset/ground_pelvis/pelvis_tx/accel	/jointset/ground_pelvis/pelvis_ty/accel	/jointset/hip_l/hip_flexion_l/accel	/jointset/hip_l/hip_adduction_l/accel	/jointset/hip_l/hip_rotation_l/accel	/jointset/back/lumbar_extension/accel	/jointset/patellofemoral_l/patellar_flexion_l/accel	/jointset/knee_l/knee_flexion_l/accel	/jointset/knee_l/knee_adduction_l/accel	/jointset/knee_l/knee_rotation_l/accel	/jointset/ankle_l/ankle_angle_l/accel	/jointset/subtalar_l/subtalar_angle_l/accel	gamma_cid13_p0	gamma_cid13_p1	gamma_cid13_p2	gamma_cid13_p3	gamma_cid13_p4	gamma_cid13_p5	gamma_cid14_p0
0.5	-0.4547131930360723	-0.06149004574168768	0.7616871088790377	1.273520259988896	-0.3080962058503462	-0.03553727182209479	-0.3301287893061992	0.7158607595525281	0.71586075955266	-0.1707585261646948	0.1735797499038075	0.06674937113258969	-0.04170102605499756	-0.7654278913882155	-0.24209024626739	-0.5059797912175392	2.409930144171064	-0.02379423314116284	0.6464657608555144	-0.6225589806661136	1.852298768298964	1.85229876829901	-0.008352795889820167	0.00209285361323102	0.3105947320851685	0.01579350569813096	-0.2506059109800922	0.02037481353631239	-0.02036922833683844	-0.193338980961357	0.1071970474382116	0.04753678496585237	0.2232448590968825	-3.831818023103184	-22.77659799766253	6.429689581239498	-2.837747880496699	-605.9418371272848	-60.16317502369187	-26.72138171520939	0.6293092097960477	0.6655449324071558	-0.3391914704841765	-1.518984646872198	0.6198831696121326	-0.3339034549005523	1.786327759142083	-1.136092735124204	-1.136092735124181	0.006674547946596564	0.005848712470887062	-0.2077228274971589	0.6015812512416329	-3.444206810649883e-07	-8.944120514316703e-07	1.685770875653383e-06	1.127627689858554e-07	-4.304765378504163e-07	-7.182577312361335e-08	-3.60204947378548e-07
0.51	-0.4623344053140386	-0.06387740803304517	0.7566114600864845	1.297539237005442	-0.3083047219711606	-0.02908935103714788	-0.3362651449898282	0.7343237006160789	0.734323700616291	-0.1708448313794135	0.1736014173582535	0.06984371957718084	-0.04151478098553765	-0.7587200738714586	-0.2353639901095247	-0.5090434725465667	2.39354456984486	-0.01792671297330771	0.6430389741789786	-0.6046488034247369	1.84002145204733	1.840021452047377	-0.008906568511432143	0.002236539440331664	0.3082068990861737	0.02143486031208552	-0.2590068782074862	0.02080717079116572	-0.02042202292479946	-0.1944955321110312	0.1060037963348471	0.04818384997298363	0.2296930596552663	-4.463953266799204	-22.85047261065768	6.331282264194651	-2.655869353269854	-610.6788578236077	-59.90918999678045	-25.63047267182205	0.7056519910352975	0.6789209975173361	-0.274065190671233	-1.74649616273934	0.5674082504474621	-0.359297748416089	1.802865601363943	-1.313680465931747	-1.313680465931609	-0.08622558700760918	0.01766292472329366	-0.2645284070757359	0.5422636837818112	-3.184113989621986e-07	-8.283929394998332e-07	1.574357549800334e-06	1.040903842834913e-07	-3.949614279653865e-07	-3.320196005500997e-08	-3.37043083956318e-07
0.52	-0.4698857126231794	-0.06619695675481657	0.7515083527353276	1.321384727811318	-0.3084551185282611	-0.02267814441384386	-0.3422204983220852	0.7526558426379599	0.7526558426382305	-0.1709366388043642	0.1736243285523181	0.07291214671759055	-0.0412727521464765	-0.7514468976178432	-0.2285275323501702	-0.511471502938242	2.37523290202887	-0.01217032040246722	0.639122928527007	-0.5863585103942102	1.826138959965731	1.826138959965777	-0.009453237924736494	0.002341601543189861	0.3054104712481677	0.0269502596184159	-0.2674078454344719	0.02123952804609638	-0.02047481751325647	-0.195652083260652	0.1048105452314569	0.04883091498018988	0.2361412602140735	-5.098657270154859	-22.92798217407323	6.23812124420437	-2.496531279798195	-615.4799971484758	-59.73292831561814	-24.53798265556878	0.7423809571682192	0.6875852527050478	-0.2120612830137752	-1.904203344828992	0.5976576502091993	-0.4317552499875909	1.862350916972464	-1.457127901117229	-1.457127901117278	0.008095189608177435	-0.00187603237778635	-0.2894417952992976	0.5763901897169047	-2.94305515898492e-07	-7.550286305156606e-07	1.483992993125844e-06	9.46184431794308e-08	-3.550962785197779e-07	1.827772838929087e-09	-3.163321775754912e-07
0.53	-0.4773615328326448	-0.06844763243096336	0.7463841154252817	1.345037890828531	-0.3085484192076924	-0.01630848362089073	-0.3479910408832695	0.770841696516419	0.7708416965168269	-0.171033543318788	0.1736481426993762	0.07595086943888436	-0.04097606161314243	-0.7436214569117023	-0.2215927344792139	-0.5132704888144388	2.355098166756987	-0.006514998622134938	0.6347351013525317	-0.5676953111181102	1.810802807705565	1.810802807705559	-0.009926362170145232	0.002425405122127884	0.3022858017536377	0.03236248648948097	-0.275682500226501	0.0215320485022178	-0.02050204262254251	-0.196836736486392	0.103720092789482	0.04923995980865389	0.2424507377972158	-5.699249162506251	-22.90769689809478	6.128916345986668	-2.353735765268866	-620.171516877312	-59.39515990542636	-23.44463697762727	0.8169439139496933	0.6986752430151875	-0.1480635328794585	-2.113381200046923	0.5455761182841964	-0.4536924605609115	1.876508041138639	-1.606149000851412	-1.606149000859056	-0.07488463515621382	0.01382395212689408	-0.3312232204512586	0.5197807196911792	-2.716220848630358e-07	-6.870146641396542e-07	1.39824148177603e-06	8.619676090018825e-08	-3.206818373401285e-07	3.444330549588123e-08	-2.966654582099041e-07
